<svg xmlns="http://www.w3.org/2000/svg" viewBox="0 0 440 600" font-family="system-ui,Segoe UI,Arial"><rect width="440" height="600" fill="#ffffff"/><defs><marker id="a" markerWidth="9" markerHeight="9" refX="7" refY="3" orient="auto"><path d="M0,0 L7,3 L0,6 Z" fill="#26324a"/></marker></defs><style>text{fill:#1a2233}.t{font-weight:700}.c{font-size:11px;fill:#5a6678}.box{fill:#eef2fb;stroke:#26324a;stroke-width:1.4}.op{fill:#d6e2ff;stroke:#2b50a0;stroke-width:1.6}.io{fill:#eafaf3;stroke:#1f8f6f;stroke-width:1.4}.bad{fill:#ffe9e9;stroke:#c0392b;stroke-width:1.6}line{stroke:#26324a;stroke-width:1.5;marker-end:url(#a)}</style><text class="t" x="20" y="26" text-anchor="start" font-size="14">AES — cifrario simmetrico a blocchi (128 bit)</text><rect class="io" x="60" y="46" width="220" height="32" rx="6"/><text class="t" x="170" y="66" text-anchor="middle" font-size="13">Testo in chiaro (128 bit)</text><line x1="170" y1="78" x2="170" y2="96"/><rect class="box" x="60" y="96" width="220" height="32" rx="6"/><text class="t" x="170" y="116" text-anchor="middle" font-size="13">AddRoundKey (K0)</text><line x1="170" y1="128" x2="170" y2="160"/><rect x="30" y="156" width="280" height="172" rx="8" fill="none" stroke="#2b50a0" stroke-dasharray="5 4"/><text class="t" x="320" y="238" text-anchor="start" font-size="12">&#215; (Nr&#8722;1)</text><text class="c" x="320" y="254" text-anchor="start" font-size="11">round</text><rect class="op" x="60" y="160" width="220" height="32" rx="6"/><text class="t" x="170" y="180" text-anchor="middle" font-size="13">SubBytes (S-box)</text><line x1="170" y1="192" x2="170" y2="204"/><rect class="op" x="60" y="204" width="220" height="32" rx="6"/><text class="t" x="170" y="224" text-anchor="middle" font-size="13">ShiftRows</text><line x1="170" y1="236" x2="170" y2="248"/><rect class="op" x="60" y="248" width="220" height="32" rx="6"/><text class="t" x="170" y="268" text-anchor="middle" font-size="13">MixColumns</text><line x1="170" y1="280" x2="170" y2="292"/><rect class="op" x="60" y="292" width="220" height="32" rx="6"/><text class="t" x="170" y="312" text-anchor="middle" font-size="13">AddRoundKey (Ki)</text><line x1="170" y1="324" x2="170" y2="356"/><rect x="30" y="352" width="280" height="128" rx="8" fill="none" stroke="#888" stroke-dasharray="3 3"/><text class="c" x="320" y="414" text-anchor="start" font-size="11">round</text><text class="c" x="320" y="430" text-anchor="start" font-size="11">finale</text><rect class="op" x="60" y="356" width="220" height="32" rx="6"/><text class="t" x="170" y="376" text-anchor="middle" font-size="13">SubBytes (S-box)</text><line x1="170" y1="388" x2="170" y2="400"/><rect class="op" x="60" y="400" width="220" height="32" rx="6"/><text class="t" x="170" y="420" text-anchor="middle" font-size="13">ShiftRows</text><line x1="170" y1="432" x2="170" y2="446"/><rect class="op" x="45" y="446" width="250" height="32" rx="6"/><text class="t" x="170" y="466" text-anchor="middle" font-size="13">AddRoundKey (K_Nr) - no MixColumns</text><line x1="170" y1="478" x2="170" y2="504"/><rect class="io" x="60" y="504" width="220" height="32" rx="6"/><text class="t" x="170" y="524" text-anchor="middle" font-size="13">Testo cifrato</text><rect class="io" x="348" y="137" width="84" height="46" rx="6"/><text class="t" x="390" y="160" text-anchor="middle" font-size="12">Chiave</text><text class="c" x="390" y="175" text-anchor="middle">key expansion</text><text class="t" x="345" y="158" text-anchor="middle" font-size="16">&#8594;</text><text class="c" x="372" y="250" text-anchor="middle" font-size="10">round</text><text class="c" x="372" y="262" text-anchor="middle" font-size="10">keys K0..K_Nr</text></svg>